<mxfile host="app.diagrams.net" agent="Mozilla/5.0 (Windows NT 10.0; Win64; x64) AppleWebKit/537.36 (KHTML, like Gecko) Chrome/132.0.0.0 Safari/537.36" version="28.2.0">
  <diagram name="Page-1" id="o9UI8_PBfsLfV8U6SlSy">
    <mxGraphModel dx="786" dy="451" grid="1" gridSize="10" guides="1" tooltips="1" connect="1" arrows="1" fold="1" page="1" pageScale="1" pageWidth="827" pageHeight="1169" math="0" shadow="0">
      <root>
        <mxCell id="0" />
        <mxCell id="1" parent="0" />
        <mxCell id="cOtdBGswgbV0UdTxMyMh-1" value="" style="verticalLabelPosition=bottom;shadow=0;dashed=0;align=center;html=1;verticalAlign=top;shape=mxgraph.electrical.logic_gates.logic_gate;operation=and;" vertex="1" parent="1">
          <mxGeometry x="60" y="80" width="100" height="60" as="geometry" />
        </mxCell>
        <mxCell id="cOtdBGswgbV0UdTxMyMh-2" value="" style="verticalLabelPosition=bottom;shadow=0;dashed=0;align=center;html=1;verticalAlign=top;shape=mxgraph.electrical.logic_gates.logic_gate;operation=and;" vertex="1" parent="1">
          <mxGeometry x="60" y="200" width="100" height="60" as="geometry" />
        </mxCell>
        <mxCell id="cOtdBGswgbV0UdTxMyMh-3" value="" style="verticalLabelPosition=bottom;shadow=0;dashed=0;align=center;html=1;verticalAlign=top;shape=mxgraph.electrical.logic_gates.logic_gate;operation=and;" vertex="1" parent="1">
          <mxGeometry x="260" y="150" width="100" height="60" as="geometry" />
        </mxCell>
        <mxCell id="cOtdBGswgbV0UdTxMyMh-4" value="P" style="text;html=1;align=center;verticalAlign=middle;resizable=0;points=[];autosize=1;strokeColor=none;fillColor=none;" vertex="1" parent="1">
          <mxGeometry x="35" y="78" width="30" height="30" as="geometry" />
        </mxCell>
        <mxCell id="cOtdBGswgbV0UdTxMyMh-5" value="T" style="text;html=1;align=center;verticalAlign=middle;resizable=0;points=[];autosize=1;strokeColor=none;fillColor=none;" vertex="1" parent="1">
          <mxGeometry x="35" y="110" width="30" height="30" as="geometry" />
        </mxCell>
        <mxCell id="cOtdBGswgbV0UdTxMyMh-6" value="S" style="text;html=1;align=center;verticalAlign=middle;resizable=0;points=[];autosize=1;strokeColor=none;fillColor=none;" vertex="1" parent="1">
          <mxGeometry x="35" y="198" width="30" height="30" as="geometry" />
        </mxCell>
        <mxCell id="cOtdBGswgbV0UdTxMyMh-7" value="R" style="text;html=1;align=center;verticalAlign=middle;resizable=0;points=[];autosize=1;strokeColor=none;fillColor=none;" vertex="1" parent="1">
          <mxGeometry x="35" y="228" width="30" height="30" as="geometry" />
        </mxCell>
        <mxCell id="cOtdBGswgbV0UdTxMyMh-8" style="edgeStyle=orthogonalEdgeStyle;rounded=0;orthogonalLoop=1;jettySize=auto;html=1;exitX=1;exitY=0.5;exitDx=0;exitDy=0;exitPerimeter=0;entryX=0;entryY=0.25;entryDx=0;entryDy=0;entryPerimeter=0;" edge="1" parent="1" source="cOtdBGswgbV0UdTxMyMh-1" target="cOtdBGswgbV0UdTxMyMh-3">
          <mxGeometry relative="1" as="geometry" />
        </mxCell>
        <mxCell id="cOtdBGswgbV0UdTxMyMh-9" style="edgeStyle=orthogonalEdgeStyle;rounded=0;orthogonalLoop=1;jettySize=auto;html=1;exitX=1;exitY=0.5;exitDx=0;exitDy=0;exitPerimeter=0;entryX=0;entryY=0.75;entryDx=0;entryDy=0;entryPerimeter=0;" edge="1" parent="1" source="cOtdBGswgbV0UdTxMyMh-2" target="cOtdBGswgbV0UdTxMyMh-3">
          <mxGeometry relative="1" as="geometry" />
        </mxCell>
        <mxCell id="cOtdBGswgbV0UdTxMyMh-12" value="MON= P.T.S.R" style="text;html=1;align=center;verticalAlign=middle;resizable=0;points=[];autosize=1;strokeColor=none;fillColor=none;" vertex="1" parent="1">
          <mxGeometry x="364" y="165" width="100" height="30" as="geometry" />
        </mxCell>
      </root>
    </mxGraphModel>
  </diagram>
</mxfile>
